<svg preserveAspectRatio="none" width="100%" height="100%" overflow="visible" style="display: block;" viewBox="0 0 14 13" fill="none" xmlns="http://www.w3.org/2000/svg">
<g id="Vector">
<g id="Vector_2">
<path d="M7 4.33347C6.33696 4.33347 5.70107 4.6188 5.23223 5.12671C4.76339 5.63461 4.5 6.32348 4.5 7.04176C4.5 7.76004 4.76339 8.44891 5.23223 8.95681C5.70107 9.46471 6.33696 9.75005 7 9.75005C7.66304 9.75005 8.29893 9.46471 8.76777 8.95681C9.23661 8.44891 9.5 7.76004 9.5 7.04176C9.5 6.32348 9.23661 5.63461 8.76777 5.12671C8.29893 4.6188 7.66304 4.33347 7 4.33347Z" fill="var(--fill-0, black)"/>
<path fill-rule="evenodd" clip-rule="evenodd" d="M5.22933 0.0514781C6.40893 -0.0171594 7.59107 -0.0171594 8.77067 0.0514781C9.41533 0.0890331 9.99067 0.473971 10.3253 1.05535L10.8727 2.0065C11.0327 2.28311 11.3027 2.47088 11.6127 2.51927C11.87 2.55827 12.126 2.60088 12.3807 2.6471C13.3353 2.81971 14 3.72537 14 4.74802V10.8334C14 11.408 13.7893 11.9591 13.4142 12.3654C13.0391 12.7717 12.5304 13 12 13H2C1.46957 13 0.960859 12.7717 0.585787 12.3654C0.210714 11.9591 0 11.408 0 10.8334V4.74802C0 3.72537 0.664667 2.81971 1.61933 2.6471C1.874 2.60088 2.13 2.55827 2.38667 2.51855C2.53708 2.49674 2.68126 2.43954 2.80909 2.35096C2.93693 2.26238 3.04532 2.14456 3.12667 2.00578L3.67467 1.05607C3.84033 0.765783 4.06811 0.522996 4.33872 0.348256C4.60934 0.173516 4.91482 0.0712444 5.22933 0.0514781ZM3.5 7.04176C3.5 6.03616 3.86875 5.07175 4.52513 4.36069C5.1815 3.64962 6.07174 3.25015 7 3.25015C7.92826 3.25015 8.8185 3.64962 9.47487 4.36069C10.1313 5.07175 10.5 6.03616 10.5 7.04176C10.5 8.04736 10.1313 9.01177 9.47487 9.72283C8.8185 10.4339 7.92826 10.8334 7 10.8334C6.07174 10.8334 5.1815 10.4339 4.52513 9.72283C3.86875 9.01177 3.5 8.04736 3.5 7.04176ZM11.5 5.95844C11.6326 5.95844 11.7598 5.90137 11.8536 5.79979C11.9473 5.69821 12 5.56044 12 5.41678C12 5.27313 11.9473 5.13535 11.8536 5.03377C11.7598 4.93219 11.6326 4.87513 11.5 4.87513C11.3674 4.87513 11.2402 4.93219 11.1464 5.03377C11.0527 5.13535 11 5.27313 11 5.41678C11 5.56044 11.0527 5.69821 11.1464 5.79979C11.2402 5.90137 11.3674 5.95844 11.5 5.95844Z" fill="var(--fill-0, black)"/>
</g>
</g>
</svg>
